<?xml version="1.0" encoding="UTF-8" standalone="no"?>
<!DOCTYPE svg PUBLIC "-//W3C//DTD SVG 1.0//EN" "http://www.w3.org/TR/2001/PR-SVG-20010719/DTD/svg10.dtd">
<svg width="57cm" height="67cm" viewBox="-220 -441 1122 1323" xmlns="http://www.w3.org/2000/svg" xmlns:xlink="http://www.w3.org/1999/xlink">
  <g>
    <rect style="fill: #e5e5e5" x="-20" y="120" width="280" height="480"/>
    <rect style="fill: none; fill-opacity:0; stroke-width: 2; stroke: #000000" x="-20" y="120" width="280" height="480"/>
    <text font-size="12.8" style="fill: #000000;text-anchor:middle;font-family:sans-serif;font-style:normal;font-weight:normal" x="120" y="363.9">
      <tspan x="120" y="363.9"></tspan>
    </text>
  </g>
  <g>
    <rect style="fill: #e5e5e5" x="300" y="120" width="280" height="480"/>
    <rect style="fill: none; fill-opacity:0; stroke-width: 2; stroke: #000000" x="300" y="120" width="280" height="480"/>
    <text font-size="12.8" style="fill: #000000;text-anchor:middle;font-family:sans-serif;font-style:normal;font-weight:normal" x="440" y="363.9">
      <tspan x="440" y="363.9"></tspan>
    </text>
  </g>
  <g>
    <rect style="fill: #e5e5e5" x="620" y="120" width="280" height="480"/>
    <rect style="fill: none; fill-opacity:0; stroke-width: 2; stroke: #000000" x="620" y="120" width="280" height="480"/>
    <text font-size="12.8" style="fill: #000000;text-anchor:middle;font-family:sans-serif;font-style:normal;font-weight:normal" x="760" y="363.9">
      <tspan x="760" y="363.9"></tspan>
    </text>
  </g>
  <text font-size="12.8" style="fill: #000000;text-anchor:start;font-family:sans-serif;font-style:normal;font-weight:normal" x="193.637" y="275.988">
    <tspan x="193.637" y="275.988"></tspan>
  </text>
  <g>
    <rect style="fill: #e5e5e5" x="-20" y="-20" width="280" height="100"/>
    <rect style="fill: none; fill-opacity:0; stroke-width: 2; stroke: #000000" x="-20" y="-20" width="280" height="100"/>
    <line style="fill: none; fill-opacity:0; stroke-width: 2; stroke: #000000" x1="8" y1="-20" x2="8" y2="80"/>
    <line style="fill: none; fill-opacity:0; stroke-width: 2; stroke: #000000" x1="232" y1="-20" x2="232" y2="80"/>
    <text font-size="12.8" style="fill: #000000;text-anchor:middle;font-family:sans-serif;font-style:normal;font-weight:normal" x="120" y="34">
      <tspan x="120" y="34">do_this()</tspan>
    </text>
  </g>
  <g>
    <rect style="fill: #ffffff" x="0" y="140" width="240" height="80"/>
    <rect style="fill: none; fill-opacity:0; stroke-width: 2; stroke: #000000" x="0" y="140" width="240" height="80"/>
    <line style="fill: none; fill-opacity:0; stroke-width: 2; stroke: #000000" x1="24" y1="140" x2="24" y2="220"/>
    <line style="fill: none; fill-opacity:0; stroke-width: 2; stroke: #000000" x1="216" y1="140" x2="216" y2="220"/>
    <text font-size="12.8" style="fill: #000000;text-anchor:middle;font-family:sans-serif;font-style:normal;font-weight:normal" x="120" y="184">
      <tspan x="120" y="184">motivation_components()</tspan>
    </text>
  </g>
  <g>
    <line style="fill: none; fill-opacity:0; stroke-width: 2; stroke: #000000" x1="120" y1="80.9949" x2="120" y2="129.834"/>
    <polygon style="fill: #000000" points="120,137.334 115,127.334 120,129.834 125,127.334 "/>
    <polygon style="fill: none; fill-opacity:0; stroke-width: 2; stroke: #000000" points="120,137.334 115,127.334 120,129.834 125,127.334 "/>
  </g>
  <g>
    <rect style="fill: #ffffff" x="0" y="320" width="240" height="80"/>
    <rect style="fill: none; fill-opacity:0; stroke-width: 2; stroke: #000000" x="0" y="320" width="240" height="80"/>
    <line style="fill: none; fill-opacity:0; stroke-width: 2; stroke: #000000" x1="24" y1="320" x2="24" y2="400"/>
    <line style="fill: none; fill-opacity:0; stroke-width: 2; stroke: #000000" x1="216" y1="320" x2="216" y2="400"/>
    <text font-size="12.8" style="fill: #000000;text-anchor:middle;font-family:sans-serif;font-style:normal;font-weight:normal" x="120" y="356">
      <tspan x="120" y="356">calculate motivation </tspan>
      <tspan x="120" y="372">values</tspan>
    </text>
  </g>
  <g>
    <line style="fill: none; fill-opacity:0; stroke-width: 2; stroke: #000000" x1="120" y1="220" x2="120" y2="249.256"/>
    <polygon style="fill: #000000" points="120,256.756 115,246.756 120,249.256 125,246.756 "/>
    <polygon style="fill: none; fill-opacity:0; stroke-width: 2; stroke: #000000" points="120,256.756 115,246.756 120,249.256 125,246.756 "/>
  </g>
  <g>
    <rect style="fill: #ffffff" x="0" y="500" width="240" height="80"/>
    <rect style="fill: none; fill-opacity:0; stroke-width: 2; stroke: #000000" x="0" y="500" width="240" height="80"/>
    <line style="fill: none; fill-opacity:0; stroke-width: 2; stroke: #000000" x1="24" y1="500" x2="24" y2="580"/>
    <line style="fill: none; fill-opacity:0; stroke-width: 2; stroke: #000000" x1="216" y1="500" x2="216" y2="580"/>
    <text font-size="12.8" style="fill: #000000;text-anchor:middle;font-family:sans-serif;font-style:normal;font-weight:normal" x="120" y="536">
      <tspan x="120" y="536">Calculate expected</tspan>
      <tspan x="120" y="552">arousal</tspan>
    </text>
  </g>
  <g>
    <line style="fill: none; fill-opacity:0; stroke-width: 2; stroke: #000000" x1="120" y1="400" x2="120" y2="410.264"/>
    <polygon style="fill: #000000" points="120,417.764 115,407.764 120,410.264 125,407.764 "/>
    <polygon style="fill: none; fill-opacity:0; stroke-width: 2; stroke: #000000" points="120,417.764 115,407.764 120,410.264 125,407.764 "/>
  </g>
  <text font-size="12.8" style="fill: #000000;text-anchor:start;font-family:sans-serif;font-style:normal;font-weight:normal" x="-220" y="-10">
    <tspan x="-220" y="-10">Perform behaviour in a </tspan>
    <tspan x="-220" y="6">"subjective" space without </tspan>
    <tspan x="-220" y="22">affecting the state of the </tspan>
    <tspan x="-220" y="38">actor agent or the </tspan>
    <tspan x="-220" y="54">environment, obtain "fake" </tspan>
    <tspan x="-220" y="70">perceptions</tspan>
  </text>
  <text font-size="12.8" style="fill: #000000;text-anchor:start;font-family:sans-serif;font-style:normal;font-weight:normal" x="-220" y="160">
    <tspan x="-220" y="160">Call gamma2gene peocedure </tspan>
    <tspan x="-220" y="176">with "fake" perceptions to </tspan>
    <tspan x="-220" y="192">get internal representations </tspan>
    <tspan x="-220" y="208">for motivational values</tspan>
  </text>
  <text font-size="12.8" style="fill: #000000;text-anchor:start;font-family:sans-serif;font-style:normal;font-weight:normal" x="-220" y="340">
    <tspan x="-220" y="340">Calculate primary and final </tspan>
    <tspan x="-220" y="356">motivations</tspan>
  </text>
  <g>
    <polygon style="fill: #ffffff" points="320,-440 560,-440 440,-240 "/>
    <polygon style="fill: none; fill-opacity:0; stroke-width: 2; stroke: #000000" points="320,-440 560,-440 440,-240 "/>
    <text font-size="12.8" style="fill: #000000;text-anchor:middle;font-family:sans-serif;font-style:normal;font-weight:normal" x="440" y="-394">
      <tspan x="440" y="-394">perception</tspan>
      <tspan x="440" y="-378">components</tspan>
    </text>
  </g>
  <text font-size="12.8" style="fill: #000000;text-anchor:start;font-family:sans-serif;font-style:normal;font-weight:normal" x="513.636" y="275.988">
    <tspan x="513.636" y="275.988"></tspan>
  </text>
  <g>
    <rect style="fill: #e5e5e5" x="300" y="-20" width="280" height="100"/>
    <rect style="fill: none; fill-opacity:0; stroke-width: 2; stroke: #000000" x="300" y="-20" width="280" height="100"/>
    <line style="fill: none; fill-opacity:0; stroke-width: 2; stroke: #000000" x1="328" y1="-20" x2="328" y2="80"/>
    <line style="fill: none; fill-opacity:0; stroke-width: 2; stroke: #000000" x1="552" y1="-20" x2="552" y2="80"/>
    <text font-size="12.8" style="fill: #000000;text-anchor:middle;font-family:sans-serif;font-style:normal;font-weight:normal" x="440" y="34">
      <tspan x="440" y="34">do_this()</tspan>
    </text>
  </g>
  <g>
    <rect style="fill: #ffffff" x="320" y="140" width="240" height="80"/>
    <rect style="fill: none; fill-opacity:0; stroke-width: 2; stroke: #000000" x="320" y="140" width="240" height="80"/>
    <line style="fill: none; fill-opacity:0; stroke-width: 2; stroke: #000000" x1="344" y1="140" x2="344" y2="220"/>
    <line style="fill: none; fill-opacity:0; stroke-width: 2; stroke: #000000" x1="536" y1="140" x2="536" y2="220"/>
    <text font-size="12.8" style="fill: #000000;text-anchor:middle;font-family:sans-serif;font-style:normal;font-weight:normal" x="440" y="184">
      <tspan x="440" y="184">motivation_components()</tspan>
    </text>
  </g>
  <g>
    <line style="fill: none; fill-opacity:0; stroke-width: 2; stroke: #000000" x1="440" y1="80.9949" x2="440" y2="129.834"/>
    <polygon style="fill: #000000" points="440,137.334 435,127.334 440,129.834 445,127.334 "/>
    <polygon style="fill: none; fill-opacity:0; stroke-width: 2; stroke: #000000" points="440,137.334 435,127.334 440,129.834 445,127.334 "/>
  </g>
  <g>
    <rect style="fill: #ffffff" x="320" y="320" width="240" height="80"/>
    <rect style="fill: none; fill-opacity:0; stroke-width: 2; stroke: #000000" x="320" y="320" width="240" height="80"/>
    <line style="fill: none; fill-opacity:0; stroke-width: 2; stroke: #000000" x1="344" y1="320" x2="344" y2="400"/>
    <line style="fill: none; fill-opacity:0; stroke-width: 2; stroke: #000000" x1="536" y1="320" x2="536" y2="400"/>
    <text font-size="12.8" style="fill: #000000;text-anchor:middle;font-family:sans-serif;font-style:normal;font-weight:normal" x="440" y="356">
      <tspan x="440" y="356">calculate motivation </tspan>
      <tspan x="440" y="372">values</tspan>
    </text>
  </g>
  <g>
    <line style="fill: none; fill-opacity:0; stroke-width: 2; stroke: #000000" x1="440" y1="220" x2="440" y2="249.256"/>
    <polygon style="fill: #000000" points="440,256.756 435,246.756 440,249.256 445,246.756 "/>
    <polygon style="fill: none; fill-opacity:0; stroke-width: 2; stroke: #000000" points="440,256.756 435,246.756 440,249.256 445,246.756 "/>
  </g>
  <g>
    <rect style="fill: #ffffff" x="320" y="500" width="240" height="80"/>
    <rect style="fill: none; fill-opacity:0; stroke-width: 2; stroke: #000000" x="320" y="500" width="240" height="80"/>
    <line style="fill: none; fill-opacity:0; stroke-width: 2; stroke: #000000" x1="344" y1="500" x2="344" y2="580"/>
    <line style="fill: none; fill-opacity:0; stroke-width: 2; stroke: #000000" x1="536" y1="500" x2="536" y2="580"/>
    <text font-size="12.8" style="fill: #000000;text-anchor:middle;font-family:sans-serif;font-style:normal;font-weight:normal" x="440" y="536">
      <tspan x="440" y="536">Calculate expected</tspan>
      <tspan x="440" y="552">arousal</tspan>
    </text>
  </g>
  <g>
    <line style="fill: none; fill-opacity:0; stroke-width: 2; stroke: #000000" x1="440" y1="400" x2="440" y2="410.264"/>
    <polygon style="fill: #000000" points="440,417.764 435,407.764 440,410.264 445,407.764 "/>
    <polygon style="fill: none; fill-opacity:0; stroke-width: 2; stroke: #000000" points="440,417.764 435,407.764 440,410.264 445,407.764 "/>
  </g>
  <g>
    <ellipse style="fill: #ffffff" cx="120" cy="280" rx="20" ry="20"/>
    <ellipse style="fill: none; fill-opacity:0; stroke-width: 2; stroke: #000000" cx="120" cy="280" rx="20" ry="20"/>
    <line style="fill: none; fill-opacity:0; stroke-width: 2; stroke: #000000" x1="105.858" y1="265.858" x2="134.142" y2="294.142"/>
    <line style="fill: none; fill-opacity:0; stroke-width: 2; stroke: #000000" x1="105.858" y1="294.142" x2="134.142" y2="265.858"/>
  </g>
  <text font-size="12.8" style="fill: #000000;text-anchor:start;font-family:sans-serif;font-style:normal;font-weight:normal" x="833.636" y="275.988">
    <tspan x="833.636" y="275.988"></tspan>
  </text>
  <g>
    <rect style="fill: #e5e5e5" x="620" y="-20" width="280" height="100"/>
    <rect style="fill: none; fill-opacity:0; stroke-width: 2; stroke: #000000" x="620" y="-20" width="280" height="100"/>
    <line style="fill: none; fill-opacity:0; stroke-width: 2; stroke: #000000" x1="648" y1="-20" x2="648" y2="80"/>
    <line style="fill: none; fill-opacity:0; stroke-width: 2; stroke: #000000" x1="872" y1="-20" x2="872" y2="80"/>
    <text font-size="12.8" style="fill: #000000;text-anchor:middle;font-family:sans-serif;font-style:normal;font-weight:normal" x="760" y="34">
      <tspan x="760" y="34">do_this()</tspan>
    </text>
  </g>
  <g>
    <rect style="fill: #ffffff" x="640" y="140" width="240" height="80"/>
    <rect style="fill: none; fill-opacity:0; stroke-width: 2; stroke: #000000" x="640" y="140" width="240" height="80"/>
    <line style="fill: none; fill-opacity:0; stroke-width: 2; stroke: #000000" x1="664" y1="140" x2="664" y2="220"/>
    <line style="fill: none; fill-opacity:0; stroke-width: 2; stroke: #000000" x1="856" y1="140" x2="856" y2="220"/>
    <text font-size="12.8" style="fill: #000000;text-anchor:middle;font-family:sans-serif;font-style:normal;font-weight:normal" x="760" y="184">
      <tspan x="760" y="184">motivation_components()</tspan>
    </text>
  </g>
  <g>
    <line style="fill: none; fill-opacity:0; stroke-width: 2; stroke: #000000" x1="760" y1="80.9949" x2="760" y2="129.834"/>
    <polygon style="fill: #000000" points="760,137.334 755,127.334 760,129.834 765,127.334 "/>
    <polygon style="fill: none; fill-opacity:0; stroke-width: 2; stroke: #000000" points="760,137.334 755,127.334 760,129.834 765,127.334 "/>
  </g>
  <g>
    <rect style="fill: #ffffff" x="640" y="320" width="240" height="80"/>
    <rect style="fill: none; fill-opacity:0; stroke-width: 2; stroke: #000000" x="640" y="320" width="240" height="80"/>
    <line style="fill: none; fill-opacity:0; stroke-width: 2; stroke: #000000" x1="664" y1="320" x2="664" y2="400"/>
    <line style="fill: none; fill-opacity:0; stroke-width: 2; stroke: #000000" x1="856" y1="320" x2="856" y2="400"/>
    <text font-size="12.8" style="fill: #000000;text-anchor:middle;font-family:sans-serif;font-style:normal;font-weight:normal" x="760" y="356">
      <tspan x="760" y="356">calculate motivation </tspan>
      <tspan x="760" y="372">values</tspan>
    </text>
  </g>
  <g>
    <line style="fill: none; fill-opacity:0; stroke-width: 2; stroke: #000000" x1="760" y1="220" x2="760" y2="249.256"/>
    <polygon style="fill: #000000" points="760,256.756 755,246.756 760,249.256 765,246.756 "/>
    <polygon style="fill: none; fill-opacity:0; stroke-width: 2; stroke: #000000" points="760,256.756 755,246.756 760,249.256 765,246.756 "/>
  </g>
  <g>
    <rect style="fill: #ffffff" x="640" y="500" width="240" height="80"/>
    <rect style="fill: none; fill-opacity:0; stroke-width: 2; stroke: #000000" x="640" y="500" width="240" height="80"/>
    <line style="fill: none; fill-opacity:0; stroke-width: 2; stroke: #000000" x1="664" y1="500" x2="664" y2="580"/>
    <line style="fill: none; fill-opacity:0; stroke-width: 2; stroke: #000000" x1="856" y1="500" x2="856" y2="580"/>
    <text font-size="12.8" style="fill: #000000;text-anchor:middle;font-family:sans-serif;font-style:normal;font-weight:normal" x="760" y="536">
      <tspan x="760" y="536">Calculate expected</tspan>
      <tspan x="760" y="552">arousal</tspan>
    </text>
  </g>
  <g>
    <line style="fill: none; fill-opacity:0; stroke-width: 2; stroke: #000000" x1="760" y1="400" x2="760" y2="410.264"/>
    <polygon style="fill: #000000" points="760,417.764 755,407.764 760,410.264 765,407.764 "/>
    <polygon style="fill: none; fill-opacity:0; stroke-width: 2; stroke: #000000" points="760,417.764 755,407.764 760,410.264 765,407.764 "/>
  </g>
  <g>
    <path style="fill: none; fill-opacity:0; stroke-width: 2; stroke: #000000" d="M 386.058 -328.013 C 206.058,-288.013 320,180 249.736,180"/>
    <polygon style="fill: #000000" points="242.236,180 252.236,175 249.736,180 252.236,185 "/>
    <polygon style="fill: none; fill-opacity:0; stroke-width: 2; stroke: #000000" points="242.236,180 252.236,175 249.736,180 252.236,185 "/>
  </g>
  <g>
    <path style="fill: none; fill-opacity:0; stroke-width: 2; stroke: #000000" d="M 493.187 -326.703 C 653.187,-286.703 540,180 630.264,180"/>
    <polygon style="fill: #000000" points="637.764,180 627.764,185 630.264,180 627.764,175 "/>
    <polygon style="fill: none; fill-opacity:0; stroke-width: 2; stroke: #000000" points="637.764,180 627.764,185 630.264,180 627.764,175 "/>
  </g>
  <g>
    <path style="fill: none; fill-opacity:0; stroke-width: 2; stroke: #000000" d="M 385.415 -329.083 C 285.415,-309.083 260,160 310.764,176.921"/>
    <polygon style="fill: #000000" points="317.879,179.293 306.811,180.874 310.764,176.921 309.973,171.387 "/>
    <polygon style="fill: none; fill-opacity:0; stroke-width: 2; stroke: #000000" points="317.879,179.293 306.811,180.874 310.764,176.921 309.973,171.387 "/>
  </g>
  <g>
    <polygon style="fill: #ffffff" points="440,630 500,680 440,730 380,680 "/>
    <polygon style="fill: none; fill-opacity:0; stroke-width: 2; stroke: #000000" points="440,630 500,680 440,730 380,680 "/>
    <text font-size="12.8" style="fill: #000000;text-anchor:middle;font-family:sans-serif;font-style:normal;font-weight:normal" x="440" y="683.9">
      <tspan x="440" y="683.9">min</tspan>
    </text>
  </g>
  <g>
    <polyline style="fill: none; fill-opacity:0; stroke-width: 2; stroke: #000000" points="120,580 120,620 410,620 410,645.264 "/>
    <polygon style="fill: #000000" points="410,652.764 405,642.764 410,645.264 415,642.764 "/>
    <polygon style="fill: none; fill-opacity:0; stroke-width: 2; stroke: #000000" points="410,652.764 405,642.764 410,645.264 415,642.764 "/>
  </g>
  <g>
    <polyline style="fill: none; fill-opacity:0; stroke-width: 2; stroke: #000000" points="760,580 760,620 470,620 470,645.264 "/>
    <polygon style="fill: #000000" points="470,652.764 465,642.764 470,645.264 475,642.764 "/>
    <polygon style="fill: none; fill-opacity:0; stroke-width: 2; stroke: #000000" points="470,652.764 465,642.764 470,645.264 475,642.764 "/>
  </g>
  <g>
    <polyline style="fill: none; fill-opacity:0; stroke-width: 2; stroke: #000000" points="440,580 440,620.264 "/>
    <polygon style="fill: #000000" points="440,627.764 435,617.764 440,620.264 445,617.764 "/>
    <polygon style="fill: none; fill-opacity:0; stroke-width: 2; stroke: #000000" points="440,627.764 435,617.764 440,620.264 445,617.764 "/>
  </g>
  <text font-size="12.8" style="fill: #000000;text-anchor:start;font-family:sans-serif;font-style:normal;font-weight:normal" x="180" y="680">
    <tspan x="180" y="680">Select behaviour with the </tspan>
    <tspan x="180" y="696">minimum expected arousal</tspan>
  </text>
  <g>
    <line style="fill: none; fill-opacity:0; stroke-width: 2; stroke: #000000" x1="120" y1="300.945" x2="120" y2="310.264"/>
    <polygon style="fill: #000000" points="120,317.764 115,307.764 120,310.264 125,307.764 "/>
    <polygon style="fill: none; fill-opacity:0; stroke-width: 2; stroke: #000000" points="120,317.764 115,307.764 120,310.264 125,307.764 "/>
  </g>
  <g>
    <ellipse style="fill: #ffffff" cx="440" cy="280" rx="20" ry="20"/>
    <ellipse style="fill: none; fill-opacity:0; stroke-width: 2; stroke: #000000" cx="440" cy="280" rx="20" ry="20"/>
    <line style="fill: none; fill-opacity:0; stroke-width: 2; stroke: #000000" x1="425.858" y1="265.858" x2="454.142" y2="294.142"/>
    <line style="fill: none; fill-opacity:0; stroke-width: 2; stroke: #000000" x1="425.858" y1="294.142" x2="454.142" y2="265.858"/>
  </g>
  <g>
    <ellipse style="fill: #ffffff" cx="760" cy="280" rx="20" ry="20"/>
    <ellipse style="fill: none; fill-opacity:0; stroke-width: 2; stroke: #000000" cx="760" cy="280" rx="20" ry="20"/>
    <line style="fill: none; fill-opacity:0; stroke-width: 2; stroke: #000000" x1="745.858" y1="265.858" x2="774.142" y2="294.142"/>
    <line style="fill: none; fill-opacity:0; stroke-width: 2; stroke: #000000" x1="745.858" y1="294.142" x2="774.142" y2="265.858"/>
  </g>
  <g>
    <line style="fill: none; fill-opacity:0; stroke-width: 2; stroke: #000000" x1="440" y1="300" x2="440" y2="310.264"/>
    <polygon style="fill: #000000" points="440,317.764 435,307.764 440,310.264 445,307.764 "/>
    <polygon style="fill: none; fill-opacity:0; stroke-width: 2; stroke: #000000" points="440,317.764 435,307.764 440,310.264 445,307.764 "/>
  </g>
  <g>
    <line style="fill: none; fill-opacity:0; stroke-width: 2; stroke: #000000" x1="760" y1="300" x2="760" y2="310.264"/>
    <polygon style="fill: #000000" points="760,317.764 755,307.764 760,310.264 765,307.764 "/>
    <polygon style="fill: none; fill-opacity:0; stroke-width: 2; stroke: #000000" points="760,317.764 755,307.764 760,310.264 765,307.764 "/>
  </g>
  <g>
    <line style="fill: none; fill-opacity:0; stroke-width: 2; stroke: #000000" x1="440" y1="730" x2="440" y2="749.271"/>
    <polygon style="fill: #000000" points="440,756.771 435,746.771 440,749.271 445,746.771 "/>
    <polygon style="fill: none; fill-opacity:0; stroke-width: 2; stroke: #000000" points="440,756.771 435,746.771 440,749.271 445,746.771 "/>
  </g>
  <g>
    <polygon style="fill: #ffffff" points="120,420 160,450 120,480 80,450 "/>
    <polygon style="fill: none; fill-opacity:0; stroke-width: 2; stroke: #000000" points="120,420 160,450 120,480 80,450 "/>
    <text font-size="12.8" style="fill: #000000;text-anchor:middle;font-family:sans-serif;font-style:normal;font-weight:normal" x="120" y="453.9">
      <tspan x="120" y="453.9"></tspan>
    </text>
  </g>
  <g>
    <line style="fill: none; fill-opacity:0; stroke-width: 2; stroke: #000000" x1="120" y1="480" x2="120" y2="490.264"/>
    <polygon style="fill: #000000" points="120,497.764 115,487.764 120,490.264 125,487.764 "/>
    <polygon style="fill: none; fill-opacity:0; stroke-width: 2; stroke: #000000" points="120,497.764 115,487.764 120,490.264 125,487.764 "/>
  </g>
  <g>
    <polygon style="fill: #ffffff" points="440,420 480,450 440,480 400,450 "/>
    <polygon style="fill: none; fill-opacity:0; stroke-width: 2; stroke: #000000" points="440,420 480,450 440,480 400,450 "/>
    <text font-size="12.8" style="fill: #000000;text-anchor:middle;font-family:sans-serif;font-style:normal;font-weight:normal" x="440" y="453.9">
      <tspan x="440" y="453.9"></tspan>
    </text>
  </g>
  <g>
    <polygon style="fill: #ffffff" points="760,420 800,450 760,480 720,450 "/>
    <polygon style="fill: none; fill-opacity:0; stroke-width: 2; stroke: #000000" points="760,420 800,450 760,480 720,450 "/>
    <text font-size="12.8" style="fill: #000000;text-anchor:middle;font-family:sans-serif;font-style:normal;font-weight:normal" x="760" y="453.9">
      <tspan x="760" y="453.9"></tspan>
    </text>
  </g>
  <g>
    <line style="fill: none; fill-opacity:0; stroke-width: 2; stroke: #000000" x1="440" y1="480" x2="440" y2="490.264"/>
    <polygon style="fill: #000000" points="440,497.764 435,487.764 440,490.264 445,487.764 "/>
    <polygon style="fill: none; fill-opacity:0; stroke-width: 2; stroke: #000000" points="440,497.764 435,487.764 440,490.264 445,487.764 "/>
  </g>
  <g>
    <line style="fill: none; fill-opacity:0; stroke-width: 2; stroke: #000000" x1="760" y1="480" x2="760" y2="489.365"/>
    <polygon style="fill: #000000" points="760,496.865 755,486.865 760,489.365 765,486.865 "/>
    <polygon style="fill: none; fill-opacity:0; stroke-width: 2; stroke: #000000" points="760,496.865 755,486.865 760,489.365 765,486.865 "/>
  </g>
  <text font-size="12.8" style="fill: #000000;text-anchor:start;font-family:sans-serif;font-style:normal;font-weight:normal" x="-200" y="460">
    <tspan x="-200" y="460">Obtain expected GOS ...</tspan>
  </text>
  <text font-size="12.8" style="fill: #000000;text-anchor:start;font-family:sans-serif;font-style:normal;font-weight:normal" x="-200" y="540">
    <tspan x="-200" y="540">... and GOS arousal level</tspan>
  </text>
  <g>
    <polygon style="fill: #e5e5e5" points="410,760 410,820 380,820 440,880 500,820 470,820 470,760 "/>
    <polygon style="fill: none; fill-opacity:0; stroke-width: 2; stroke: #000000" points="410,760 410,820 380,820 440,880 500,820 470,820 470,760 "/>
    <polygon style="fill: none; fill-opacity:0; stroke-width: 2; stroke: #000000" points="410,760 410,820 380,820 440,880 500,820 470,820 470,760 "/>
  </g>
  <g>
    <polygon style="fill: #e5e5e5" points="90,-180 90,-120 60,-120 120,-60 180,-120 150,-120 150,-180 "/>
    <polygon style="fill: none; fill-opacity:0; stroke-width: 2; stroke: #000000" points="90,-180 90,-120 60,-120 120,-60 180,-120 150,-120 150,-180 "/>
    <polygon style="fill: none; fill-opacity:0; stroke-width: 2; stroke: #000000" points="90,-180 90,-120 60,-120 120,-60 180,-120 150,-120 150,-180 "/>
  </g>
  <g>
    <polygon style="fill: #e5e5e5" points="730,-180 730,-120 700,-120 760,-60 820,-120 790,-120 790,-180 "/>
    <polygon style="fill: none; fill-opacity:0; stroke-width: 2; stroke: #000000" points="730,-180 730,-120 700,-120 760,-60 820,-120 790,-120 790,-180 "/>
    <polygon style="fill: none; fill-opacity:0; stroke-width: 2; stroke: #000000" points="730,-180 730,-120 700,-120 760,-60 820,-120 790,-120 790,-180 "/>
  </g>
  <g>
    <polygon style="fill: #e5e5e5" points="410,-180 410,-120 380,-120 440,-60 500,-120 470,-120 470,-180 "/>
    <polygon style="fill: none; fill-opacity:0; stroke-width: 2; stroke: #000000" points="410,-180 410,-120 380,-120 440,-60 500,-120 470,-120 470,-180 "/>
    <polygon style="fill: none; fill-opacity:0; stroke-width: 2; stroke: #000000" points="410,-180 410,-120 380,-120 440,-60 500,-120 470,-120 470,-180 "/>
  </g>
  <text font-size="12.8" style="fill: #000000;text-anchor:start;font-family:sans-serif;font-style:normal;font-weight:normal" x="80" y="-200">
    <tspan x="80" y="-200">Behaviour A</tspan>
  </text>
  <text font-size="12.8" style="fill: #000000;text-anchor:start;font-family:sans-serif;font-style:normal;font-weight:normal" x="400" y="-200">
    <tspan x="400" y="-200">Behaviour B</tspan>
  </text>
  <text font-size="12.8" style="fill: #000000;text-anchor:start;font-family:sans-serif;font-style:normal;font-weight:normal" x="720" y="-200">
    <tspan x="720" y="-200">Behaviour C</tspan>
  </text>
  <text font-size="12.8" style="fill: #000000;text-anchor:start;font-family:sans-serif;font-style:normal;font-weight:normal" x="250" y="790">
    <tspan x="250" y="790">Execute behaviour</tspan>
  </text>
</svg>
